<svg id="visual" viewBox="0 0 900 600" width="900" height="600" xmlns="http://www.w3.org/2000/svg" xmlns:xlink="http://www.w3.org/1999/xlink" version="1.1"><rect x="0" y="0" width="900" height="600" fill="#001220"></rect><defs><linearGradient id="grad1_0" x1="33.3%" y1="0%" x2="100%" y2="100%"><stop offset="20%" stop-color="#001220" stop-opacity="1"></stop><stop offset="80%" stop-color="#001220" stop-opacity="1"></stop></linearGradient></defs><defs><linearGradient id="grad2_0" x1="0%" y1="0%" x2="66.7%" y2="100%"><stop offset="20%" stop-color="#001220" stop-opacity="1"></stop><stop offset="80%" stop-color="#001220" stop-opacity="1"></stop></linearGradient></defs><g transform="translate(900, 0)"><path d="M0 216.3C-28.2 213.3 -56.5 210.3 -82.8 199.9C-109.1 189.5 -133.4 171.7 -149.9 149.9C-166.4 128.1 -175 102.2 -184.8 76.5C-194.5 50.9 -205.4 25.4 -216.3 0L0 0Z" fill="#54056f"></path></g><g transform="translate(0, 600)"><path d="M0 -216.3C30.6 -215.5 61.3 -214.7 82.8 -199.9C104.3 -185 116.7 -156.1 135.1 -135.1C153.4 -114 177.6 -100.8 192.2 -79.6C206.7 -58.4 211.5 -29.2 216.3 0L0 0Z" fill="#54056f"></path></g></svg>