<svg id="visual" viewBox="0 0 900 600" width="900" height="600" xmlns="http://www.w3.org/2000/svg" xmlns:xlink="http://www.w3.org/1999/xlink" version="1.1"><rect x="0" y="0" width="900" height="600" fill="#001220"></rect><defs><linearGradient id="grad1_0" x1="33.3%" y1="0%" x2="100%" y2="100%"><stop offset="20%" stop-color="#001220" stop-opacity="1"></stop><stop offset="80%" stop-color="#001220" stop-opacity="1"></stop></linearGradient></defs><defs><linearGradient id="grad2_0" x1="0%" y1="0%" x2="66.7%" y2="100%"><stop offset="20%" stop-color="#001220" stop-opacity="1"></stop><stop offset="80%" stop-color="#001220" stop-opacity="1"></stop></linearGradient></defs><g transform="translate(900, 0)"><path d="M0 189.3C-9.9 170.7 -19.9 152.1 -34.7 152.1C-49.6 152.1 -69.3 170.6 -82.1 170.5C-95 170.5 -100.9 151.7 -112.9 141.5C-124.9 131.3 -143 129.6 -147 117.2C-151 104.8 -141 81.7 -137.8 66.4C-134.7 51.1 -138.5 43.6 -148.2 33.8C-157.9 24.1 -173.6 12 -189.3 0L0 0Z" fill="#54056f"></path></g><g transform="translate(0, 600)"><path d="M0 -189.3C13.1 -179.5 26.2 -169.8 36.9 -161.8C47.7 -153.9 56.1 -147.8 71.2 -147.8C86.2 -147.7 108 -153.6 115.3 -144.6C122.7 -135.7 115.5 -111.9 126.7 -101C137.8 -90.1 167.2 -92.2 170.5 -82.1C173.9 -72.1 151.3 -50 150.1 -34.3C148.9 -18.6 169.1 -9.3 189.3 0L0 0Z" fill="#54056f"></path></g></svg>